<svg xmlns="http://www.w3.org/2000/svg" viewBox="0 0 2620.21 410.68"><defs><style>.cls-1{fill:#fff;}</style></defs><g id="Layer_2" data-name="Layer 2"><g id="Layer_1-2" data-name="Layer 1"><path class="cls-1" d="M733.78,86.9l-51.15,41.74c-3.46-3.21-6.54-6.48-10-9.22-16.8-13.2-36.26-17.35-57-14.74C574.7,109.86,545.26,140,539.29,182c-4.38,30.87.43,59.76,20,84.93,26.23,33.74,74.87,41.5,108.1,17.5a77.35,77.35,0,0,0,9.73-8.55c3-3.06,5.59-6.53,8.48-10L741,307.19a99.49,99.49,0,0,1-20.47,22.35c-25,20.35-54,29.6-85.9,30.21-33.82.65-65.86-6.19-95-23.9-38.13-23.17-60.25-57.49-68.18-100.94-6.39-34.95-3.93-69.39,10.41-102.2,20.34-46.54,56.8-74,105.62-85.37,34-7.93,67.72-7.34,100.56,5.85C705.93,60.39,721.27,71.18,733.78,86.9Z"/><path class="cls-1" d="M2074.31,224.91l21.53-24.81q22.54-26,45.16-52c1.27-1.45,3.42-3,5.17-3,25-.2,50-.13,76.42-.13-27.82,31.54-54.89,62.25-82.31,93.36,27.94,37.66,55.82,75.24,84.28,113.58-2.55.19-4.11.4-5.67.4-23.49,0-47-.05-70.47.09a7.63,7.63,0,0,1-7.28-3.9q-31.71-47.84-63.66-95.52a14.4,14.4,0,0,0-4.07-4.36V351.92h-64.36V30.13h63.89v194.2Z"/><path class="cls-1" d="M2440.52,213.26c-8.42-33.11-27-57.64-60.39-68.64-22.64-7.45-45.72-6.64-68.44-.36-90.56,25-97.74,126.6-54.66,175.22,35.45,40,102.5,50,149.59,21.36a99.35,99.35,0,0,0,28.1-24.67l-22.42-16.42L2390,283.38c-21,27.69-47.26,28.44-65.07,21.42-14.93-5.87-28-22.69-28-36.18h147.57C2444.9,249.73,2445.11,231.32,2440.52,213.26Zm-60.81,11.5h-83.08c-.89-21.61,20.68-39.46,46.62-38.77C2363.86,186.55,2381.56,205.09,2379.71,224.76Z"/><path class="cls-1" d="M1293.73,109.06h-86.21V50.44h238.61v58.41h-85.85V351.9h-66.55Z"/><path class="cls-1" d="M1779.48,245.42a263.82,263.82,0,0,0-3.86-41.62c-5.21-29.45-20.68-51.19-50.87-59.1-36-9.44-71.29-6.55-105,9.73a95.05,95.05,0,0,0-27,19.09L1629,207.09a34,34,0,0,1,2.92-3.5c9.93-9.86,21.62-16.61,35.48-19.07,16.59-2.94,31.94-.77,44.07,12.27a31.2,31.2,0,0,1,8.66,22.43c-19.63,1.26-38.75,2-57.77,3.84-18.49,1.78-36.23,6.54-52.66,15.78-39.12,22-39.75,82.58-2.69,105.63,15.54,9.67,32.48,13.4,50.51,12.73,24.74-.93,46.36-8.56,61.46-29.61.12-.18.54-.15,1.57-.41v24.75h58.79c.13-1.59.33-2.88.33-4.17C1779.65,313.64,1780,279.53,1779.48,245.42Zm-97,67.36c-8.85,1.23-17.57,1.36-26-2.14-7.79-3.25-13.74-8.31-14.72-17.25-1.06-9.75,3.2-17.08,11.39-22.14,10.33-6.39,22-8.42,33.81-9.11,10.87-.64,21.81-.14,32.72-.14C1724.71,288.79,1709.87,309,1682.52,312.78Z"/><path class="cls-1" d="M1994.3,167.44l-42.86,45a61.2,61.2,0,0,0-5-6.2c-19.79-18.76-63.65-11.4-73.9,21.75-6.63,21.45-5.18,42.06,11.24,59,18.16,18.78,48.29,18.28,66.54-.37.35-.35.75-.65,1.71-1.48l42.47,44.46c-3.85,3.19-7.29,6.46-11.14,9.15-20,14-42.6,19-66.63,18.44-26.33-.58-50.68-7.65-71.59-24-30.73-24.06-42.73-56.5-39.82-94.6,4.31-56.25,46.19-91,95.83-97.65,23.4-3.15,46.13-.94,67.83,8.89A85.82,85.82,0,0,1,1994.3,167.44Z"/><path class="cls-1" d="M1213.29,166.43,1170,211.86c-14-16.28-31.14-18.91-50.13-12.84s-29.06,20.22-31.9,39.58c-2.5,17-.07,33.12,11.74,46.3,18.91,21.11,49.21,21.18,70.29.18l42.32,44.38c-14.14,14.22-31.15,22-50.18,25.49-28.35,5.25-55.95,2.47-81.62-10.91-40.41-21.07-58.79-55.5-57.45-100.45,1.54-51.68,37.12-92,88.72-101.47,26-4.77,51.52-3.45,75.64,8.1C1196.26,154.46,1204.2,160.66,1213.29,166.43Z"/><path class="cls-1" d="M825.24,145.32v32.76c1.63-2.53,2.61-4,3.51-5.45,18.32-30.42,43.57-36.35,74.84-31.5,1.25.2,3.2,2.09,3.21,3.21.2,18.44.14,36.88.14,55.5-7.3-1.19-14.17-3.29-21-3.19-10.38.16-21.07.58-31,3.19-17.12,4.49-24.86,18-27.59,34.47a159.82,159.82,0,0,0-2.09,24.8c-.25,28.95-.1,57.89-.1,86.84v5.86H761V145.32Z"/><path class="cls-1" d="M1488.46,178c5.2-7,9.12-13.21,13.91-18.64,13.43-15.22,31-20.48,50.73-19.7a109.92,109.92,0,0,1,14.37,1.52c1.23.21,3.1,2.13,3.11,3.28.16,18.13.08,36.27,0,54.41,0,.28-.29.56-.49.93-6.66-1.11-13.31-2.51-20-3.25a75,75,0,0,0-31.58,3.09c-17.09,5.55-25.07,18.6-27.45,35.32a256.36,256.36,0,0,0-2.2,32.78c-.31,26.12-.1,52.25-.1,78.37v5.76h-64V145.3h63.67Z"/><path class="cls-1" d="M2475.56,145.09h63.75v31.64l1,.76c17.13-33.32,44.88-42.51,79.92-36V199c-10-1-19.86-2.56-29.77-2.73-11.23-.19-22.3,1.82-31.86,8.37-12.34,8.46-16.55,21.4-17.86,35.29-1.1,11.57-1.19,23.24-1.27,34.87-.18,23.8-.06,47.59-.06,71.39v5.68h-63.83Z"/><path class="cls-1" d="M927.51,145.12h63.7V351.86h-63.7Z"/><path class="cls-1" d="M996.58,79.41a37.24,37.24,0,1,1-37.18-37A37.23,37.23,0,0,1,996.58,79.41Z"/><path class="cls-1" d="M327.84,40.21l-52.69,66.47C239.38,83.6,201.51,78.13,161.76,93.61c-33,12.86-55.93,36.55-68.62,69.67-24.73,64.5,11.73,137.83,78.17,157.34,78.44,23,151.86-35.16,155.09-107.94L410.9,215c-1.25,73.72-51.77,160.2-146.28,187.07C166.26,430,69.31,388.38,22.67,298.89-22.44,212.33,1.62,104.31,78.41,44,156.23-17.21,261.05-10.83,327.84,40.21Z"/><path class="cls-1" d="M180.25,183.38h19.57v54.24h11.65V183.49h19.67V173.11H180.25Z"/><path class="cls-1" d="M211.71,105.34c-54.85-3.58-102.44,38.26-106,93.72-3.59,55.8,38.85,104.66,97.35,106.43,54.09,1.64,100.88-40,103.05-97.54C307.1,154.11,266.58,108.92,211.71,105.34Zm-6,158.7a58.75,58.75,0,1,1,58.76-58.42A58.51,58.51,0,0,1,205.74,264Z"/></g></g></svg>